<?xml version="1.0" encoding="us-ascii" standalone="no"?><svg xmlns="http://www.w3.org/2000/svg" xmlns:xlink="http://www.w3.org/1999/xlink" contentStyleType="text/css" height="955px" preserveAspectRatio="none" style="width:1297px;height:955px;background:#FFFFFF;" version="1.1" viewBox="0 0 1297 955" width="1297px" zoomAndPan="magnify"><defs/><g><!--cluster Sistema de Revision de Documentos--><g id="cluster_Sistema de Revision de Documentos"><rect fill="none" height="469" rx="2.5" ry="2.5" style="stroke:#181818;stroke-width:1.0;" width="1185" x="106" y="242.05"/><text fill="#000000" font-family="sans-serif" font-size="14" font-weight="bold" lengthAdjust="spacing" textLength="293" x="552" y="257.0451">Sistema de Revision de Documentos</text></g><g id="elem_Registro"><ellipse cx="254.5868" cy="461.2897" fill="#F1F1F1" rx="55.5868" ry="14.7397" style="stroke:#181818;stroke-width:0.5;"/><text fill="#000000" font-family="sans-serif" font-size="14" lengthAdjust="spacing" textLength="61" x="221.0868" y="465.0373">Registro</text></g><g id="elem_Inicio de Sesi&#243;n"><ellipse cx="254.4563" cy="528.8413" fill="#F1F1F1" rx="76.9563" ry="17.7913" style="stroke:#181818;stroke-width:0.5;"/><text fill="#000000" font-family="sans-serif" font-size="14" lengthAdjust="spacing" textLength="111" x="196.0675" y="532.5601">Inicio de Sesi&#243;n</text></g><g id="elem_Subir Documento"><ellipse cx="593.212" cy="525.9924" fill="#F1F1F1" rx="82.712" ry="18.9424" style="stroke:#181818;stroke-width:0.5;"/><text fill="#000000" font-family="sans-serif" font-size="14" lengthAdjust="spacing" textLength="125" x="530.0208" y="529.0715">Subir Documento</text></g><g id="elem_Ver Dashboard"><ellipse cx="254.4948" cy="599.949" fill="#F1F1F1" rx="74.9948" ry="17.399" style="stroke:#181818;stroke-width:0.5;"/><text fill="#000000" font-family="sans-serif" font-size="14" lengthAdjust="spacing" textLength="106" x="198.4948" y="603.6965">Ver Dashboard</text></g><g id="elem_Ver Mis Documentos"><ellipse cx="254.3318" cy="673.9164" fill="#F1F1F1" rx="92.3318" ry="20.8664" style="stroke:#181818;stroke-width:0.5;"/><text fill="#000000" font-family="sans-serif" font-size="14" lengthAdjust="spacing" textLength="147" x="180.8318" y="676.763">Ver Mis Documentos</text></g><g id="elem_Solicitar Revisi&#243;n"><ellipse cx="592.8658" cy="675.8232" fill="#F1F1F1" rx="81.8658" ry="18.7732" style="stroke:#181818;stroke-width:0.5;"/><text fill="#000000" font-family="sans-serif" font-size="14" lengthAdjust="spacing" textLength="123" x="530.3805" y="678.9963">Solicitar Revisi&#243;n</text></g><g id="elem_Eliminar Documento"><ellipse cx="592.8872" cy="600.8274" fill="#F1F1F1" rx="91.8872" ry="20.7774" style="stroke:#181818;stroke-width:0.5;"/><text fill="#000000" font-family="sans-serif" font-size="14" lengthAdjust="spacing" textLength="146" x="519.8872" y="603.6741">Eliminar Documento</text></g><g id="elem_Ver Log de Acciones"><ellipse cx="254.4431" cy="391.2386" fill="#F1F1F1" rx="91.4431" ry="20.6886" style="stroke:#181818;stroke-width:0.5;"/><text fill="#000000" font-family="sans-serif" font-size="14" lengthAdjust="spacing" textLength="145" x="181.9431" y="394.0853">Ver Log de Acciones</text></g><g id="elem_Ver Mis Revisiones"><ellipse cx="884.728" cy="375.0956" fill="#F1F1F1" rx="85.728" ry="19.5456" style="stroke:#181818;stroke-width:0.5;"/><text fill="#000000" font-family="sans-serif" font-size="14" lengthAdjust="spacing" textLength="132" x="818.728" y="377.9423">Ver Mis Revisiones</text></g><g id="elem_Aceptar o Rechazar Anotaciones"><ellipse cx="254.5721" cy="305.9644" fill="#F1F1F1" rx="132.5721" ry="28.9144" style="stroke:#181818;stroke-width:0.5;"/><text fill="#000000" font-family="sans-serif" font-size="14" lengthAdjust="spacing" textLength="234" x="137.5721" y="308.8111">Aceptar o Rechazar Anotaciones</text></g><g id="elem_Hacer Anotaciones"><ellipse cx="1179.5998" cy="375.27" fill="#F1F1F1" rx="86.5998" ry="19.72" style="stroke:#181818;stroke-width:0.5;"/><text fill="#000000" font-family="sans-serif" font-size="14" lengthAdjust="spacing" textLength="134" x="1112.5998" y="378.1166">Hacer Anotaciones</text></g><g id="elem_Aceptar Documento"><ellipse cx="1179.3872" cy="450.8274" fill="#F1F1F1" rx="91.8872" ry="20.7774" style="stroke:#181818;stroke-width:0.5;"/><text fill="#000000" font-family="sans-serif" font-size="14" lengthAdjust="spacing" textLength="146" x="1106.3872" y="453.6741">Aceptar Documento</text></g><g id="elem_Rechazar Documento"><ellipse cx="1179.4604" cy="299.0421" fill="#F1F1F1" rx="95.4604" ry="21.4921" style="stroke:#181818;stroke-width:0.5;"/><text fill="#000000" font-family="sans-serif" font-size="14" lengthAdjust="spacing" textLength="154" x="1102.4604" y="301.8888">Rechazar Documento</text></g><!--entity U--><g id="elem_U"><ellipse cx="32.5" cy="611.55" fill="#F1F1F1" rx="8" ry="8" style="stroke:#181818;stroke-width:0.5;"/><path d="M32.5,619.55 L32.5,646.55 M19.5,627.55 L45.5,627.55 M32.5,646.55 L19.5,661.55 M32.5,646.55 L45.5,661.55 " fill="none" style="stroke:#181818;stroke-width:0.5;"/><text fill="#000000" font-family="sans-serif" font-size="14" lengthAdjust="spacing" textLength="51" x="7" y="676.0451">Usuario</text></g><!--entity R--><g id="elem_R"><ellipse cx="32.5" cy="159.55" fill="#F1F1F1" rx="8" ry="8" style="stroke:#181818;stroke-width:0.5;"/><path d="M32.5,167.55 L32.5,194.55 M19.5,175.55 L45.5,175.55 M32.5,194.55 L19.5,209.55 M32.5,194.55 L45.5,209.55 " fill="none" style="stroke:#181818;stroke-width:0.5;"/><text fill="#000000" font-family="sans-serif" font-size="14" lengthAdjust="spacing" textLength="53" x="6" y="224.0451">Revisor</text></g><!--link U to Registro--><g id="link_U_Registro"><path d="M40.1295,602.869 C48.0269,569.147 64.6063,521.233 98,494.05 C124.716,472.304 162.348,463.918 193.9,461.035 " fill="none" id="U-to-Registro" style="stroke:#181818;stroke-width:1.0;"/><polygon fill="#181818" points="198.909,460.618,189.6085,457.3775,193.9262,461.0323,190.2714,465.35,198.909,460.618" style="stroke:#181818;stroke-width:1.0;"/></g><!--link U to Inicio de Sesi?n--><g id="link_U_Inicio de Sesi&#243;n"><path d="M58.1531,602.788 C68.8442,588.99 82.4831,574.506 98,565.05 C121.947,550.457 151.262,541.776 177.958,536.613 " fill="none" id="U-to-Inicio de Sesi&#243;n" style="stroke:#181818;stroke-width:1.0;"/><polygon fill="#181818" points="182.91,535.689,173.329,533.4075,177.9948,536.606,174.7963,541.2718,182.91,535.689" style="stroke:#181818;stroke-width:1.0;"/></g><!--link U to Subir Documento--><g id="link_U_Subir Documento"><path d="M57.5562,679.147 C68.1695,692.459 81.9112,705.863 98,713.05 C215.274,765.442 260.44,734.972 387,713.05 C426.061,706.284 444.376,712.422 471,683.05 C507.921,642.319 464.966,604.569 501,563.05 C508.923,553.922 519.434,547.012 530.493,541.791 " fill="none" id="U-to-Subir Documento" style="stroke:#181818;stroke-width:1.0;"/><polygon fill="#181818" points="535.26,539.656,525.4112,539.6854,530.697,541.7003,528.6821,546.9862,535.26,539.656" style="stroke:#181818;stroke-width:1.0;"/></g><!--link U to Ver Dashboard--><g id="link_U_Ver Dashboard"><path d="M58.3091,636.427 C90.1211,630.498 146.426,620.005 190.415,611.807 " fill="none" id="U-to-Ver Dashboard" style="stroke:#181818;stroke-width:1.0;"/><polygon fill="#181818" points="195.444,610.87,185.8636,608.5863,190.5286,611.7859,187.329,616.451,195.444,610.87" style="stroke:#181818;stroke-width:1.0;"/></g><!--link U to Ver Mis Documentos--><g id="link_U_Ver Mis Documentos"><path d="M58.3091,644.772 C85.7333,648.885 131.36,655.729 171.606,661.766 " fill="none" id="U-to-Ver Mis Documentos" style="stroke:#181818;stroke-width:1.0;"/><polygon fill="#181818" points="176.993,662.574,168.6857,657.2835,172.0483,661.8325,167.4993,665.1951,176.993,662.574" style="stroke:#181818;stroke-width:1.0;"/></g><!--link U to Solicitar Revisi?n--><g id="link_U_Solicitar Revisi&#243;n"><path d="M38.3946,679.455 C46.0715,732.8 62.8271,825.0467 89,845.0503 C223.891,948.1463 319.996,922.6531 471,845.0503 C530.743,814.348 567.578,738.943 583.233,700.077 " fill="none" id="U-to-Solicitar Revisi&#243;n" style="stroke:#181818;stroke-width:1.0;"/><polygon fill="#181818" points="585.214,695.07,578.185,701.9688,583.3755,699.7197,585.6245,704.9103,585.214,695.07" style="stroke:#181818;stroke-width:1.0;"/></g><!--link U to Eliminar Documento--><g id="link_U_Eliminar Documento"><path d="M37.9834,679.247 C43.8995,710.593 57.5593,753.102 89,774.05 C230.289,868.1884 338.482,880.1803 471,774.05 C518.636,735.9 462.008,687 501,640.05 C508.142,631.45 517.529,624.703 527.559,619.422 " fill="none" id="U-to-Eliminar Documento" style="stroke:#181818;stroke-width:1.0;"/><polygon fill="#181818" points="532.207,617.097,522.3684,617.5467,527.7354,619.3342,525.948,624.7012,532.207,617.097" style="stroke:#181818;stroke-width:1.0;"/></g><!--link U to Ver Log de Acciones--><g id="link_U_Ver Log de Acciones"><path d="M34.2216,602.655 C37.2623,555.056 49.7864,474.652 98,429.05 C115.153,412.826 138.047,403.186 160.982,397.545 " fill="none" id="U-to-Ver Log de Acciones" style="stroke:#181818;stroke-width:1.0;"/><polygon fill="#181818" points="165.875,396.402,156.2006,394.5565,161.0064,397.5406,158.0223,402.3464,165.875,396.402" style="stroke:#181818;stroke-width:1.0;"/></g><!--link R to Ver Mis Revisiones--><g id="link_R_Ver Mis Revisiones"><path d="M59.2876,193.845 C117.729,204.78 264.688,232.66 387,259.05 C543.413,292.798 726.489,336.724 820.587,359.627 " fill="none" id="R-to-Ver Mis Revisiones" style="stroke:#181818;stroke-width:1.0;"/><polygon fill="#181818" points="825.551,360.836,817.7547,354.8179,820.6933,359.6516,815.8596,362.5902,825.551,360.836" style="stroke:#181818;stroke-width:1.0;"/></g><!--link R to Aceptar o Rechazar Anotaciones--><g id="link_R_Aceptar o Rechazar Anotaciones"><path d="M59.0859,223.186 C67.7184,232.918 77.9844,242.828 89,250.05 C110.287,264.007 135.412,274.848 159.532,283.109 " fill="none" id="R-to-Aceptar o Rechazar Anotaciones" style="stroke:#181818;stroke-width:1.0;"/><polygon fill="#181818" points="164.341,284.727,157.0864,278.0659,159.602,283.1326,154.5353,285.6482,164.341,284.727" style="stroke:#181818;stroke-width:1.0;"/></g><!--link R to Hacer Anotaciones--><g id="link_R_Hacer Anotaciones"><path d="M59.0125,153.6 C67.574,143.798 77.8189,133.965 89,127.05 C153.466,87.184 177.703,82.05 253.5,82.05 C253.5,82.05 253.5,82.05 885.5,82.05 C963.014,82.05 1002.567,69.059 1054,127.05 C1116.85,197.916 1025.22,263.772 1084,338.05 C1091.27,347.238 1101.14,354.149 1111.77,359.347 " fill="none" id="R-to-Hacer Anotaciones" style="stroke:#181818;stroke-width:1.0;"/><polygon fill="#181818" points="1116.36,361.471,1109.8717,354.0614,1111.8222,359.3714,1106.5123,361.3219,1116.36,361.471" style="stroke:#181818;stroke-width:1.0;"/></g><!--link R to Aceptar Documento--><g id="link_R_Aceptar Documento"><path d="M59.0192,182.109 C99.7906,171.648 182.288,153.05 253.5,153.05 C253.5,153.05 253.5,153.05 885.5,153.05 C987.255,153.05 1000.47,221.514 1054,308.05 C1079.31,348.962 1051.91,376.206 1084,412.05 C1091.98,420.96 1102.3,427.882 1113.18,433.244 " fill="none" id="R-to-Aceptar Documento" style="stroke:#181818;stroke-width:1.0;"/><polygon fill="#181818" points="1117.87,435.448,1111.4273,427.9987,1113.3452,433.3205,1108.0234,435.2384,1117.87,435.448" style="stroke:#181818;stroke-width:1.0;"/></g><!--link R to Rechazar Documento--><g id="link_R_Rechazar Documento"><path d="M40.0226,150.761 C47.0829,120.859 61.2853,80.419 89,56.05 C145.922,6 177.703,11.05 253.5,11.05 C253.5,11.05 253.5,11.05 885.5,11.05 C963.014,11.05 993.686,7.362 1054,56.05 C1125.14,113.479 1159.76,222.309 1172.5,272.488 " fill="none" id="R-to-Rechazar Documento" style="stroke:#181818;stroke-width:1.0;"/><polygon fill="#181818" points="1173.74,277.446,1175.4391,267.7448,1172.528,272.5951,1167.6777,269.684,1173.74,277.446" style="stroke:#181818;stroke-width:1.0;"/></g><!--link R to Ver Log de Acciones--><g id="link_R_Ver Log de Acciones"><path d="M38.4623,227.081 C45.3453,264.301 61.3874,319.947 98,352.05 C116.072,367.897 139.647,377.49 162.955,383.246 " fill="none" id="R-to-Ver Log de Acciones" style="stroke:#181818;stroke-width:1.0;"/><polygon fill="#181818" points="167.922,384.416,160.0796,378.458,163.0553,383.269,158.2444,386.2447,167.922,384.416" style="stroke:#181818;stroke-width:1.0;"/></g><!--link Ver Mis Documentos to Subir Documento--><g id="link_Ver Mis Documentos_Subir Documento"><path d="M325.644,660.611 C346.372,654.74 368.459,646.494 387,635.05 C403.589,624.811 401.259,614.552 417,603.05 C450.387,578.655 463.165,579.734 501,563.05 C515.3,556.745 531.024,550.212 545.318,544.423 " fill="none" id="Ver Mis Documentos-to-Subir Documento" style="stroke:#181818;stroke-width:1.0;stroke-dasharray:7.0,7.0;"/><polygon fill="#181818" points="550.107,542.49,540.2641,542.1489,545.4704,544.3612,543.258,549.5675,550.107,542.49" style="stroke:#181818;stroke-width:1.0;"/><text fill="#000000" font-family="sans-serif" font-size="13" lengthAdjust="spacing" textLength="52" x="418" y="570.1169">includes</text></g><!--link Ver Mis Documentos to Solicitar Revisi?n--><g id="link_Ver Mis Documentos_Solicitar Revisi&#243;n"><path d="M347.006,674.594 C396.391,674.888 457.002,675.248 505.582,675.537 " fill="none" id="Ver Mis Documentos-to-Solicitar Revisi&#243;n" style="stroke:#181818;stroke-width:1.0;stroke-dasharray:7.0,7.0;"/><polygon fill="#181818" points="510.844,675.568,501.8682,671.5141,505.8441,675.538,501.8202,679.5139,510.844,675.568" style="stroke:#181818;stroke-width:1.0;"/><text fill="#000000" font-family="sans-serif" font-size="13" lengthAdjust="spacing" textLength="52" x="418" y="671.1169">includes</text></g><!--link Ver Mis Documentos to Eliminar Documento--><g id="link_Ver Mis Documentos_Eliminar Documento"><path d="M321.982,659.628 C379.362,647.18 462.037,629.244 520.762,616.505 " fill="none" id="Ver Mis Documentos-to-Eliminar Documento" style="stroke:#181818;stroke-width:1.0;stroke-dasharray:7.0,7.0;"/><polygon fill="#181818" points="525.657,615.443,516.0135,613.4422,520.7707,616.5031,517.7097,621.2603,525.657,615.443" style="stroke:#181818;stroke-width:1.0;"/><text fill="#000000" font-family="sans-serif" font-size="13" lengthAdjust="spacing" textLength="52" x="418" y="624.1169">includes</text></g><!--link Solicitar Revisi?n to Ver Mis Revisiones--><g id="link_Solicitar Revisi&#243;n_Ver Mis Revisiones"><path d="M645.73,661.243 C659.309,655.893 673.389,648.92 685,640.05 C775.458,570.954 844.744,450.192 871.487,399.037 " fill="none" id="Solicitar Revisi&#243;n-to-Ver Mis Revisiones" style="stroke:#181818;stroke-width:1.0;stroke-dasharray:7.0,7.0;"/><polygon fill="#181818" points="873.792,394.599,866.0943,400.7427,871.4876,399.0363,873.194,404.4297,873.792,394.599" style="stroke:#181818;stroke-width:1.0;"/><text fill="#000000" font-family="sans-serif" font-size="13" lengthAdjust="spacing" textLength="52" x="716" y="553.1169">extends</text></g><!--link Ver Mis Revisiones to Hacer Anotaciones--><g id="link_Ver Mis Revisiones_Hacer Anotaciones"><path d="M970.248,375.05 C1007.13,375.05 1050.4,375.05 1087.91,375.05 " fill="none" id="Ver Mis Revisiones-to-Hacer Anotaciones" style="stroke:#181818;stroke-width:1.0;stroke-dasharray:7.0,7.0;"/><polygon fill="#181818" points="1092.93,375.05,1083.93,371.05,1087.93,375.05,1083.93,379.05,1092.93,375.05" style="stroke:#181818;stroke-width:1.0;"/><text fill="#000000" font-family="sans-serif" font-size="13" lengthAdjust="spacing" textLength="52" x="1001" y="371.1169">includes</text></g><!--link Ver Mis Revisiones to Aceptar Documento--><g id="link_Ver Mis Revisiones_Aceptar Documento"><path d="M941.647,389.614 C990.583,402.307 1061.59,420.725 1113.08,434.081 " fill="none" id="Ver Mis Revisiones-to-Aceptar Documento" style="stroke:#181818;stroke-width:1.0;stroke-dasharray:7.0,7.0;"/><polygon fill="#181818" points="1118,435.358,1110.2946,429.2239,1113.1606,434.101,1108.2835,436.9669,1118,435.358" style="stroke:#181818;stroke-width:1.0;"/><text fill="#000000" font-family="sans-serif" font-size="13" lengthAdjust="spacing" textLength="52" x="1001" y="402.1169">includes</text></g><!--link Ver Mis Revisiones to Rechazar Documento--><g id="link_Ver Mis Revisiones_Rechazar Documento"><path d="M941.647,360.487 C990.019,347.939 1059.95,329.799 1111.29,316.483 " fill="none" id="Ver Mis Revisiones-to-Rechazar Documento" style="stroke:#181818;stroke-width:1.0;stroke-dasharray:7.0,7.0;"/><polygon fill="#181818" points="1116.2,315.209,1106.4835,313.6001,1111.3606,316.466,1108.4946,321.3431,1116.2,315.209" style="stroke:#181818;stroke-width:1.0;"/><text fill="#000000" font-family="sans-serif" font-size="13" lengthAdjust="spacing" textLength="52" x="1001" y="329.1169">includes</text></g><!--SRC=[ZL7DIiGm4BxtAOOzwM7t0Jm81GK5lRJK-smwjWDj8aagelXKFe8lvhJRiccRoaAXORxvVlAbeLSFte3bglPGiYNbsUWaGUMDXS9rQDa0EYZ6KKRlxEGleon9-dtKLKEmozbvQX5AEks8J7- -CwfhINlZTl2L9005xFUtS9LH9GHhhi-ZHyrAp8IKa-FV7nrWUNTaUnOBa1UIERhwQD2MY_apko10A6SQyV8utcTXTjzmongt_PvCrSTCbUJLD0ZBbysDfnPE-0YcYjvwMoEmgl5JZgas7jLoyG4LRM6Jo2nUDlKwoiR0xUonkk1mY3GFDy1QDLr9xdzUfE9BkP47M52ZwWCtKhzmwSEJBcUkuSB0N5U-aNV5N3_8fSp8SuNKxpy0]--></g></svg>